<svg width="21" height="20" viewBox="0 0 21 20" fill="none" xmlns="http://www.w3.org/2000/svg">
<path d="M19.8301 5.31998C19.0191 3.80444 17.8352 2.52067 16.3901 1.58998C15.0823 0.74866 13.5963 0.223924 12.0502 0.0574623C10.5041 -0.108999 8.9405 0.087402 7.4836 0.631061C6.0267 1.17472 4.71667 2.05066 3.65758 3.18927C2.59849 4.32789 1.81954 5.69781 1.3826 7.19019C0.945669 8.68258 0.862799 10.2563 1.14058 11.7863C1.41835 13.3163 2.04912 14.7605 2.98277 16.004C3.91641 17.2476 5.12721 18.2563 6.51895 18.9499C7.91069 19.6436 9.44503 20.0031 11.0001 20H11.2901C12.9891 19.9498 14.6473 19.4674 16.1082 18.5983C17.569 17.7292 18.7841 16.5021 19.6388 15.0328C20.4936 13.5635 20.9597 11.9006 20.9931 10.2012C21.0266 8.5017 20.6263 6.82175 19.8301 5.31998ZM10.0001 17.93C8.0782 17.6741 6.31468 16.7289 5.03741 15.2703C3.76014 13.8116 3.05604 11.9388 3.05604 9.99998C3.05604 8.06116 3.76014 6.18831 5.03741 4.72968C6.31468 3.27105 8.0782 2.3259 10.0001 2.06998V17.93ZM12.0001 2.06998C12.8646 2.18057 13.7055 2.43047 14.4901 2.80998L12.0001 7.11998V2.06998ZM12.0001 11.07L16.1701 3.89998C16.7849 4.42793 17.3174 5.04473 17.7501 5.72998L12.0001 15.69V11.07ZM13.1501 17.65L18.7401 7.99998C18.9091 8.65333 18.9964 9.32513 19.0001 9.99998C18.9988 11.746 18.4264 13.4436 17.3702 14.8339C16.3139 16.2242 14.8318 17.2307 13.1501 17.7V17.65Z" fill="#5046E5"/>
</svg>
