<svg width="24" height="24" viewBox="0 0 24 24" fill="none" xmlns="http://www.w3.org/2000/svg">
<path d="M11.579 12.056C14.2178 12.056 16.357 9.91682 16.357 7.278C16.357 4.63918 14.2178 2.5 11.579 2.5C8.94021 2.5 6.80103 4.63918 6.80103 7.278C6.80103 9.91682 8.94021 12.056 11.579 12.056Z" stroke="white" stroke-width="1.5" stroke-linecap="round" stroke-linejoin="round"/>
<path fill-rule="evenodd" clip-rule="evenodd" d="M4.00002 18.7016C3.99875 18.3657 4.07387 18.0339 4.21971 17.7313C4.67738 16.816 5.968 16.3308 7.03893 16.1112C7.81129 15.9463 8.59432 15.8362 9.38218 15.7816C10.8409 15.6535 12.308 15.6535 13.7666 15.7816C14.5544 15.8369 15.3374 15.947 16.1099 16.1112C17.1808 16.3308 18.4714 16.7702 18.9291 17.7313C19.2224 18.3481 19.2224 19.0642 18.9291 19.681C18.4714 20.6421 17.1808 21.0814 16.1099 21.2919C15.3384 21.4636 14.5551 21.5768 13.7666 21.6306C12.5794 21.7313 11.3866 21.7496 10.1968 21.6855C9.92223 21.6855 9.65678 21.6855 9.38218 21.6306C8.59665 21.5775 7.81633 21.4642 7.04809 21.2919C5.968 21.0814 4.68653 20.6421 4.21971 19.681C4.07461 19.3749 3.99957 19.0403 4.00002 18.7016Z" stroke="white" stroke-width="1.5" stroke-linecap="round" stroke-linejoin="round"/>
</svg>
